<svg width="96" height="80" fill="none" xmlns="http://www.w3.org/2000/svg"><path d="M90.76 62.77H42.178a.781.781 0 110-1.562h48.584a3.333 3.333 0 003.333-3.333V5.395a3.333 3.333 0 00-3.333-3.332H5.29a3.333 3.333 0 00-3.333 3.333v52.479a3.333 3.333 0 003.334 3.333h2.385a.781.781 0 110 1.563H5.292a4.906 4.906 0 01-4.896-4.896V5.395A4.906 4.906 0 015.292.5h85.52a4.906 4.906 0 014.897 4.896v52.479a4.907 4.907 0 01-4.948 4.896z" fill="#26F215"/><path d="M66.292 46.01a16.469 16.469 0 1115.094-23.062 16.666 16.666 0 011.364 6.635 16.479 16.479 0 01-16.458 16.428zm0-31.364a14.875 14.875 0 1013.656 8.927 14.928 14.928 0 00-13.656-8.927z" fill="#26F215"/><path d="M66.292 30.333a.782.782 0 01-.427-.125.804.804 0 01-.354-.656V13.864a.781.781 0 01.781-.78 16.51 16.51 0 0115.094 9.864.812.812 0 010 .604.791.791 0 01-.417.427l-14.375 6.25a.835.835 0 01-.302.104zm.781-15.625v13.646l12.5-5.48a14.927 14.927 0 00-12.5-8.207v.041z" fill="#26F215"/><path d="M72.646 21.406a.78.78 0 01-.688-1.146l4.636-8.791a.78.78 0 01.698-.417h9.843a.781.781 0 010 1.563H77.76l-4.427 8.333a.782.782 0 01-.687.458zM56.459 49.167h-9.855a.781.781 0 110-1.563h9.376l4.427-8.333a.78.78 0 011.375.73l-4.636 8.75a.782.782 0 01-.687.416zM28.76 19.854H13.626a2.833 2.833 0 01-2.833-2.833v-4.73a2.832 2.832 0 012.833-2.843h15.136a2.844 2.844 0 012.844 2.844v4.729a2.843 2.843 0 01-2.844 2.833zm-15.135-8.843a1.28 1.28 0 00-1.27 1.28v4.73a1.27 1.27 0 001.27 1.27h15.136a1.28 1.28 0 001.281-1.27v-4.73a1.28 1.28 0 00-1.281-1.28H13.625zm24.719 17.343H11.542a.781.781 0 110-1.562h26.802a.781.781 0 010 1.562zm-6.25 7.188H11.542a.781.781 0 110-1.563h20.552a.781.781 0 010 1.563zm-7.156 28.854a8.146 8.146 0 118.135-8.146 8.156 8.156 0 01-8.136 8.146zm0-14.719a6.583 6.583 0 10-.022 13.166 6.583 6.583 0 00.021-13.166z" fill="#26F215"/><path d="M11.865 73.563a.87.87 0 01-.23 0 .782.782 0 01-.52-.98 14.583 14.583 0 017.083-8.51.792.792 0 01.812 0 10.334 10.334 0 0011.844 0 .791.791 0 01.813 0 14.583 14.583 0 017.073 8.469.786.786 0 01-1.5.468 12.875 12.875 0 00-5.896-7.291 11.958 11.958 0 01-12.823 0 12.938 12.938 0 00-5.938 7.302.781.781 0 01-.718.541z" fill="#26F215"/><path d="M24.938 79.5a18.042 18.042 0 1118.031-18.03A18.063 18.063 0 0124.938 79.5zm0-34.51a16.478 16.478 0 1016.469 16.479 16.5 16.5 0 00-16.47-16.48z" fill="#26F215"/></svg>