<svg width="60" height="60" fill="none" xmlns="http://www.w3.org/2000/svg"><rect width="60" height="60" rx="30" fill="#0CFE24"/><g clip-path="url(#clip0_3_584)"><path d="M10.839 28.234c-1.116.977-1.116 2.563 0 3.54l14.286 12.5c1.116.976 2.928.976 4.044 0 1.116-.977 1.116-2.563 0-3.54L19.75 32.5h27.394C48.723 32.5 50 31.383 50 30s-1.277-2.5-2.857-2.5H19.759l9.401-8.234c1.116-.977 1.116-2.563 0-3.54-1.116-.976-2.928-.976-4.044 0l-14.286 12.5.009.008z" fill="#000"/></g><defs><clipPath id="clip0_3_584"><path fill="#fff" transform="translate(10 10)" d="M0 0h40v40H0z"/></clipPath></defs></svg>