<svg width="100" height="100" fill="none" xmlns="http://www.w3.org/2000/svg"><g clip-path="url(#clip0_32_2)" fill="#26F215"><path d="M49.523.031c-.023.024-.336.102-.687.164-2.453.47-4.86 2.258-6.602 4.914-2.125 3.235-3.476 6.493-5.203 12.524-.094.312-.195.57-.234.57-.04 0-.695-.351-1.461-.789-3.711-2.094-7.649-3.742-10.649-4.453-1.46-.352-2.335-.46-3.593-.46-3.782 0-6.336 1.35-7.696 4.062-.992 1.976-1.18 4.882-.5 7.851.704 3.11 2.352 7.094 4.516 10.922.438.766.79 1.422.79 1.46 0 .04-.259.142-.563.235-5.047 1.438-7.899 2.54-10.883 4.18C3.062 43.242.812 45.851.18 48.844c-.235 1.125-.133 2.203.343 3.523.688 1.938 2.422 3.977 4.586 5.399 3.235 2.125 6.5 3.484 12.532 5.203.304.094.562.195.562.242 0 .047-.187.398-.422.797-2.258 3.875-4.07 8.117-4.82 11.305-.352 1.46-.461 2.335-.461 3.593 0 3.782 1.351 6.336 4.062 7.696 1.977.992 4.883 1.18 7.852.5 3.11-.704 7.094-2.352 10.922-4.516.766-.438 1.422-.79 1.46-.79.04 0 .141.259.235.563 1.438 5.047 2.54 7.915 4.18 10.883 2.039 3.703 4.64 5.946 7.633 6.578 1.125.235 2.203.133 3.523-.343 1.938-.688 3.977-2.422 5.399-4.586 2.125-3.235 3.476-6.493 5.203-12.532.093-.304.195-.562.234-.562.04 0 .695.352 1.461.789 4.453 2.516 8.75 4.188 12.32 4.797 1.016.172 2.938.156 4.047-.04 3.04-.523 5.04-2.155 5.977-4.882.5-1.46.648-3.914.336-5.672-.625-3.578-2.258-7.687-4.899-12.36-.351-.632-.648-1.179-.648-1.226 0-.039.258-.14.57-.234 5.04-1.438 7.89-2.54 10.875-4.18 3.695-2.031 5.945-4.64 6.578-7.633.235-1.125.133-2.203-.343-3.523-.688-1.938-2.422-3.977-4.586-5.399-3.235-2.125-6.5-3.484-12.524-5.203-.312-.093-.57-.195-.57-.234 0-.04.351-.695.789-1.461 2.516-4.453 4.187-8.75 4.797-12.32.172-1.016.156-2.938-.04-4.047-.523-3.04-2.156-5.04-4.882-5.977-1.461-.5-3.914-.648-5.672-.336-3.578.625-7.688 2.258-12.36 4.899-.632.351-1.18.648-1.226.648-.039 0-.14-.258-.234-.57-.086-.305-.383-1.32-.657-2.242-1.601-5.407-3.89-9.977-6.117-12.242-1.64-1.672-3.07-2.524-4.906-2.93-.734-.164-1.688-.266-1.766-.188zm1.766 3.477c.727.21 1.977.844 2.656 1.351 2.54 1.907 4.844 5.352 6.797 10.18.516 1.281 1.367 3.633 1.367 3.79 0 .03-.375.296-.836.593a115.87 115.87 0 00-10.078 7.195c-.61.485-1.148.883-1.195.883-.047 0-.586-.398-1.195-.883a116.959 116.959 0 00-10.07-7.195c-.47-.297-.844-.563-.844-.594 0-.156.851-2.508 1.367-3.789 2.273-5.617 5.015-9.36 8-10.922 1.562-.82 2.687-.984 4.031-.61zM24.476 15.273c2.75.32 5.86 1.258 9.329 2.805 1.07.477 2.656 1.274 2.71 1.36.024.039-.078.593-.218 1.234-.781 3.414-1.485 7.594-1.953 11.703-.102.89-.227 1.664-.266 1.703-.047.047-.812.164-1.695.266-3.953.445-8.282 1.164-11.711 1.953-.64.14-1.195.242-1.235.219-.085-.055-.882-1.64-1.359-2.711-3.32-7.446-3.812-13.18-1.414-16.438 1.234-1.672 4.32-2.5 7.813-2.094zm54.25-.039c2.094.274 3.844 1.07 4.594 2.094 2.414 3.281 1.93 9.024-1.398 16.477-.477 1.07-1.274 2.656-1.36 2.71-.039.024-.593-.077-1.234-.218-3.43-.79-7.758-1.508-11.71-1.953-.884-.102-1.65-.219-1.696-.266-.04-.039-.164-.812-.266-1.703-.469-4.11-1.172-8.289-1.953-11.703-.14-.64-.242-1.195-.219-1.234.055-.086 1.64-.883 2.711-1.36 4.953-2.21 9.492-3.242 12.532-2.844zm-40.453 5.094c1.907 1.047 4.57 2.711 6.688 4.164 1.61 1.117 4.57 3.313 4.57 3.399 0 .03-.304.32-.68.633-1.18.984-2.906 2.484-4.078 3.546-.617.555-1.242 1.11-1.382 1.235-.25.21-.274.21-1.805.289-1.906.094-2.375.125-4.82.32-1.36.117-1.961.14-2.024.078-.086-.086 0-.836.422-3.484.64-4.04 2.156-10.508 2.46-10.508.024 0 .321.148.65.328zm24.368.266c.57 1.68 1.71 6.828 2.195 9.914.422 2.648.508 3.398.422 3.484-.063.063-.664.04-2.024-.078-2.445-.195-2.914-.226-4.82-.32-1.531-.078-1.555-.078-1.805-.29-.14-.124-.765-.679-1.383-1.234a165.013 165.013 0 00-4.07-3.547c-.383-.312-.687-.601-.687-.632 0-.172 4.687-3.532 6.953-4.977 2.148-1.375 4.82-2.93 4.96-2.89.04.015.165.265.259.57zm-11.352 8.633c2.164 1.742 4.82 4.046 4.79 4.148-.017.04-2.75.07-6.08.07-3.327 0-6.062-.03-6.077-.07-.055-.172 5.82-5.094 6.078-5.094.062 0 .648.43 1.289.946zm4.695 4.586l.711.054.594.532c2.14 1.914 6.633 6.406 8.336 8.343l.531.602.063 1.234c.086 1.61.086 9.235 0 10.844l-.063 1.242-.617.688c-2 2.218-6.32 6.547-8.281 8.273l-.602.531-1.234.063c-1.61.086-9.235.086-10.836 0l-1.234-.063-.368-.312c-1.656-1.414-6.89-6.633-8.61-8.586l-.523-.586-.046-.898c-.203-3.485-.11-12.165.132-12.532.586-.883 8.422-8.718 9.313-9.312.266-.172 3.406-.25 8-.203 2.21.015 4.344.062 4.734.086zm-13.406.132c0 .078-8.617 8.641-8.656 8.602-.125-.125.539-7.617.695-7.867.07-.117.985-.235 3.39-.461 3.016-.274 4.571-.367 4.571-.274zm18.555.203c1.898.165 3.789.36 4.078.422a.31.31 0 01.219.22c.187.835.757 7.788.64 7.788-.062 0-8.648-8.586-8.648-8.648 0-.063 1.492.023 3.71.218zm-27.102.649c.024.062-.008.742-.078 1.508a131.762 131.762 0 00-.36 5.242c-.077 1.57-.077 1.594-.288 1.844-.125.14-.68.765-1.235 1.383a165.013 165.013 0 00-3.547 4.07c-.312.383-.601.687-.632.687-.086 0-2.282-2.96-3.399-4.57-1.96-2.852-4.578-7.18-4.453-7.383.195-.312 6.79-1.836 10.508-2.422 3.36-.523 3.422-.53 3.484-.36zm33.602.086c2.258.328 3.281.5 5.453.937 3.008.602 6.758 1.563 6.875 1.758.125.203-2.492 4.531-4.453 7.383-1.117 1.61-3.313 4.57-3.399 4.57-.03 0-.32-.304-.632-.687a165.013 165.013 0 00-3.547-4.07c-.555-.618-1.11-1.243-1.235-1.383-.21-.25-.21-.274-.289-1.844a131.762 131.762 0 00-.36-5.242c-.07-.766-.1-1.446-.077-1.508.054-.148.125-.14 1.664.086zm-48.211 3.844a115.906 115.906 0 007.195 10.078c.485.61.883 1.148.883 1.195 0 .047-.398.586-.883 1.195a116.98 116.98 0 00-7.195 10.07c-.297.47-.563.844-.594.844-.156 0-2.508-.851-3.789-1.367-4.828-1.953-8.266-4.25-10.18-6.797-.484-.648-1.195-2.062-1.39-2.773-.18-.664-.18-1.68 0-2.344.195-.71.906-2.125 1.39-2.773 1.914-2.54 5.407-4.875 10.196-6.805 1.304-.523 3.578-1.344 3.742-1.352.055-.007.328.368.625.829zm62.976-.438c6.079 2.102 10.516 4.805 12.743 7.766.484.648 1.195 2.062 1.39 2.773.18.664.18 1.68 0 2.344-.195.71-.906 2.125-1.39 2.773-1.915 2.547-5.352 4.844-10.18 6.797-1.281.516-3.633 1.367-3.79 1.367-.03 0-.296-.375-.593-.843a116.98 116.98 0 00-7.195-10.07c-.485-.61-.883-1.15-.883-1.196 0-.047.398-.586.883-1.195a129.699 129.699 0 003.687-4.86c.82-1.14 3.375-4.968 3.805-5.695.117-.195.25-.36.289-.36.04 0 .594.18 1.234.4zM33.445 50c0 3.328-.031 6.063-.07 6.078-.164.055-5.094-5.82-5.094-6.078s4.93-6.133 5.094-6.078c.039.016.07 2.75.07 6.078zm34.219-4.984c1.93 2.203 4.055 4.804 4.055 4.976 0 .117-.164.336-1.36 1.805-1.773 2.164-3.64 4.312-3.742 4.273-.039-.007-.094-11.312-.055-12.125.008-.14.243.086 1.102 1.07zm-39.14 6.133c.984 1.18 2.484 2.906 3.546 4.078.555.617 1.11 1.242 1.235 1.382.21.25.21.274.289 1.805.093 1.906.125 2.375.32 4.82.117 1.36.14 1.961.078 2.024-.086.086-.836 0-3.484-.422-3.719-.586-10.274-2.102-10.469-2.414-.125-.203 2.492-4.531 4.453-7.383 1.117-1.61 3.313-4.57 3.399-4.57.03 0 .32.304.632.68zm44.859.937c2.039 2.742 3.844 5.445 5.344 7.992.953 1.625 1.289 2.258 1.234 2.344-.195.312-6.75 1.828-10.469 2.414-2.648.422-3.398.508-3.484.422-.063-.063-.04-.664.078-2.024.195-2.445.226-2.914.32-4.82.078-1.531.078-1.555.29-1.805.124-.14.679-.765 1.234-1.382a151.878 151.878 0 003.546-4.078c.313-.376.602-.68.633-.68.032 0 .61.726 1.274 1.617zM38.28 61.719c2.36 2.367 4.297 4.328 4.297 4.351 0 .118-6.953-.453-7.789-.64a.31.31 0 01-.219-.219c-.187-.836-.758-7.79-.64-7.79.023 0 1.984 1.938 4.351 4.298zm27.781-3.344c-.101 1.836-.523 6.328-.632 6.836a.31.31 0 01-.22.219c-.835.187-7.788.758-7.788.64 0-.07 8.547-8.632 8.625-8.64.039-.008.047.398.015.945zm-45.39 5.328c3.43.79 7.75 1.508 11.71 1.953.884.102 1.65.22 1.696.266.04.039.164.812.266 1.703.468 4.11 1.172 8.29 1.953 11.703.14.64.242 1.195.219 1.235-.055.085-1.641.882-2.711 1.359-6.782 3.023-12.18 3.71-15.524 1.977-1.156-.602-1.578-1.024-2.18-2.18-1.734-3.352-1.046-8.742 1.977-15.524.586-1.32 1.32-2.757 1.406-2.757.008 0 .54.117 1.188.265zm60.281.477c.484.93 1.234 2.578 1.719 3.789 2.383 5.969 2.805 10.703 1.226 13.75-.601 1.156-1.023 1.578-2.18 2.18-3.343 1.734-8.742 1.046-15.523-1.977-1.07-.477-2.656-1.273-2.71-1.36-.024-.038.077-.593.218-1.234.781-3.414 1.484-7.594 1.953-11.703.102-.89.227-1.664.266-1.703.047-.047.812-.164 1.695-.266 4.031-.453 9.406-1.36 12.149-2.054.32-.078.64-.141.703-.141.062.008.28.328.484.719zm-45.055 1.836c1.047.101 3.852.297 5.649.39 1.57.078 1.594.078 1.844.29.14.124.765.68 1.382 1.234a151.85 151.85 0 004.078 3.547c.376.312.68.601.68.632 0 .086-2.96 2.282-4.57 3.399-2.852 1.96-7.18 4.578-7.383 4.453-.195-.117-1.148-3.86-1.758-6.875-.578-2.89-1.195-6.797-1.101-7.031.047-.133.21-.14 1.18-.04zm29.383.039c.094.234-.523 4.14-1.101 7.031-.61 3.016-1.563 6.758-1.758 6.875-.203.125-4.531-2.492-7.383-4.453-1.61-1.117-4.57-3.313-4.57-3.399 0-.03.304-.32.687-.632a164.796 164.796 0 004.07-3.547c.618-.555 1.243-1.11 1.383-1.235.25-.21.274-.21 1.844-.289 1.727-.086 4.594-.289 5.531-.383.977-.109 1.25-.101 1.297.032zm-9.203.57c.055.172-5.82 5.094-6.078 5.094-.14 0-1.938-1.438-3.906-3.133-2.07-1.773-2.22-1.906-2.172-1.992.062-.094 12.125-.063 12.156.031zm-4.883 6.758a115.89 115.89 0 0010.078 7.195c.461.297.836.563.836.594 0 .156-.851 2.508-1.367 3.789-1.953 4.828-4.25 8.266-6.797 10.18-.648.484-2.062 1.195-2.773 1.39-.664.18-1.68.18-2.344 0-.71-.195-2.125-.906-2.773-1.39-2.547-1.914-4.844-5.352-6.797-10.18-.516-1.281-1.367-3.633-1.367-3.79 0-.03.375-.296.843-.593 3.328-2.101 7.22-4.89 10.133-7.25.563-.453 1.063-.82 1.117-.82.055-.008.602.39 1.211.875z"/><path d="M48.484 40.203c-5.383.836-9.086 5.867-8.28 11.258.796 5.414 5.843 9.14 11.257 8.336 3.195-.469 5.992-2.508 7.445-5.414.375-.75.758-2 .89-2.922a9.955 9.955 0 00-5.413-10.367c-1.703-.852-3.969-1.195-5.899-.89z"/></g><defs><clipPath id="clip0_32_2"><path fill="#fff" d="M0 0h100v100H0z"/></clipPath></defs></svg>