<svg width="140" height="23" fill="none" xmlns="http://www.w3.org/2000/svg"><g clip-path="url(#clip0_3_543)"><rect y="1.636" width="20" height="20.744" rx="10" fill="#0E0D0D"/><path d="M11.004 2.366c-.184-.446-.573-.73-1-.73-.428 0-.813.284-1 .73L6.77 7.726l-4.986.859c-.417.073-.764.413-.893.879-.128.466-.024.98.275 1.325l3.618 4.177-.854 5.903c-.07.486.104.98.448 1.268a.987.987 0 001.173.093l4.455-2.775 4.455 2.775a.98.98 0 001.174-.093c.343-.292.517-.782.447-1.268l-.857-5.903 3.618-4.177c.298-.345.406-.86.274-1.325-.132-.466-.476-.806-.892-.88l-4.99-.858-2.232-5.36z" fill="#F5CE00"/></g><g clip-path="url(#clip1_3_543)"><rect x="30" y=".599" width="20" height="20.744" rx="10" fill="#0E0D0D"/><path d="M41.004 1.328C40.82.883 40.43.6 40.004.6c-.428 0-.813.284-1 .73l-2.233 5.36-4.986.859c-.417.072-.764.413-.893.879-.128.466-.024.98.275 1.325l3.618 4.177-.854 5.903c-.07.486.104.98.448 1.268a.987.987 0 001.173.093l4.455-2.775 4.455 2.775a.98.98 0 001.173-.093c.344-.292.518-.782.448-1.268l-.857-5.903 3.618-4.177c.298-.345.406-.86.274-1.325-.132-.466-.476-.807-.892-.88l-4.99-.858-2.232-5.36z" fill="#F5CE00"/></g><g clip-path="url(#clip2_3_543)"><rect x="60" y=".599" width="20" height="20.744" rx="10" fill="#0E0D0D"/><path d="M71.004 1.328C70.82.883 70.43.6 70.004.6c-.428 0-.813.284-1 .73l-2.233 5.36-4.986.859c-.417.072-.764.413-.893.879-.128.466-.024.98.275 1.325l3.618 4.177-.854 5.903c-.07.486.104.98.448 1.268a.987.987 0 001.173.093l4.455-2.775 4.455 2.775a.98.98 0 001.173-.093c.344-.292.518-.782.448-1.268l-.857-5.903 3.618-4.177c.298-.345.406-.86.274-1.325-.132-.466-.476-.807-.892-.88l-4.99-.858-2.233-5.36z" fill="#F5CE00"/></g><g clip-path="url(#clip3_3_543)"><rect x="90" y="1.636" width="20" height="20.744" rx="10" fill="#0E0D0D"/><path d="M101.004 2.366c-.184-.446-.573-.73-1-.73-.428 0-.813.284-1 .73l-2.233 5.36-4.986.859c-.417.073-.764.413-.893.879-.128.466-.024.98.275 1.325l3.618 4.177-.854 5.903c-.07.486.104.98.448 1.268a.987.987 0 001.173.093l4.455-2.775 4.455 2.775a.98.98 0 001.173-.093c.344-.292.518-.782.448-1.268l-.857-5.903 3.618-4.177c.298-.345.406-.86.274-1.325-.132-.466-.476-.806-.892-.88l-4.99-.858-2.232-5.36z" fill="#F5CE00"/></g><g clip-path="url(#clip4_3_543)"><rect x="120" y="1.636" width="20" height="20.744" rx="10" fill="#0E0D0D"/><path d="M131.004 2.366c-.184-.446-.573-.73-1-.73-.428 0-.813.284-1 .73l-2.233 5.36-4.986.859c-.417.073-.764.413-.893.879-.128.466-.024.98.275 1.325l3.618 4.177-.854 5.903c-.07.486.104.98.448 1.268a.986.986 0 001.173.093l4.455-2.775 4.455 2.775a.98.98 0 001.173-.093c.344-.292.518-.782.448-1.268l-.857-5.903 3.618-4.177c.298-.345.406-.86.274-1.325-.132-.466-.476-.806-.892-.88l-4.99-.858-2.232-5.36z" fill="#F5CE00"/></g><defs><clipPath id="clip0_3_543"><rect y="1.636" width="20" height="20.744" rx="10" fill="#fff"/></clipPath><clipPath id="clip1_3_543"><rect x="30" y=".599" width="20" height="20.744" rx="10" fill="#fff"/></clipPath><clipPath id="clip2_3_543"><rect x="60" y=".599" width="20" height="20.744" rx="10" fill="#fff"/></clipPath><clipPath id="clip3_3_543"><rect x="90" y="1.636" width="20" height="20.744" rx="10" fill="#fff"/></clipPath><clipPath id="clip4_3_543"><rect x="120" y="1.636" width="20" height="20.744" rx="10" fill="#fff"/></clipPath></defs></svg>