<svg width="150" height="20" fill="none" xmlns="http://www.w3.org/2000/svg"><defs><clipPath id="a"><path fill="#fff" fill-opacity="0" d="M0 0h22v20H0z"/></clipPath><clipPath id="b"><path transform="translate(32)" fill="#fff" fill-opacity="0" d="M0 0h22v20H0z"/></clipPath><clipPath id="c"><path transform="translate(64)" fill="#fff" fill-opacity="0" d="M0 0h22v20H0z"/></clipPath><clipPath id="d"><path transform="translate(96)" fill="#fff" fill-opacity="0" d="M0 0h22v20H0z"/></clipPath><clipPath id="e"><path transform="translate(128)" fill="#fff" fill-opacity="0" d="M0 0h22v20H0z"/></clipPath></defs><path d="M0 0h22v20H0z"/><g clip-path="url(#a)"><path d="M12.1.7C11.9.27 11.47 0 11 0c-.47 0-.9.27-1.1.7L7.44 5.87l-5.48.82c-.46.07-.84.4-.98.85-.15.45-.03.95.3 1.28l3.98 4.03-.94 5.69c-.08.47.11.94.49 1.22s.88.31 1.29.09l4.9-2.68 4.9 2.68c.42.22.92.19 1.29-.09.38-.28.57-.75.5-1.22l-.95-5.69 3.98-4.03c.33-.33.45-.83.3-1.28-.14-.45-.52-.78-.98-.85l-5.49-.82L12.1.7z" fill="#F5CE00"/></g><path d="M32 0h22v20H32z"/><g clip-path="url(#b)"><path d="M44.1.7C43.9.27 43.47 0 43 0c-.47 0-.89.27-1.1.7l-2.46 5.17-5.48.82c-.46.07-.84.4-.98.85-.14.45-.03.95.3 1.28l3.98 4.03-.94 5.69c-.08.47.11.94.49 1.22s.88.31 1.29.09l4.9-2.68 4.9 2.68c.42.22.92.19 1.29-.09.38-.28.57-.75.5-1.22l-.95-5.69 3.98-4.03c.33-.33.45-.83.31-1.28a1.25 1.25 0 00-.99-.85l-5.48-.82L44.1.7z" fill="#F5CE00"/></g><path d="M64 0h22v20H64z"/><g clip-path="url(#c)"><path d="M76.1.7C75.9.27 75.47 0 75 0c-.47 0-.89.27-1.1.7l-2.46 5.17-5.48.82c-.46.07-.84.4-.98.85-.14.45-.03.95.3 1.28l3.98 4.03-.94 5.69c-.08.47.11.94.49 1.22s.88.31 1.29.09l4.9-2.68 4.9 2.68c.42.22.92.19 1.29-.09.38-.28.57-.75.5-1.22l-.95-5.69 3.98-4.03c.33-.33.45-.83.31-1.28a1.25 1.25 0 00-.99-.85l-5.48-.82L76.1.7z" fill="#F5CE00"/></g><path d="M96 0h22v20H96z"/><g clip-path="url(#d)"><path d="M108.1.7c-.2-.43-.63-.7-1.1-.7-.47 0-.89.27-1.1.7l-2.46 5.17-5.48.82c-.46.07-.84.4-.98.85-.14.45-.03.95.3 1.28l3.98 4.03-.94 5.69c-.08.47.11.94.49 1.22s.88.31 1.29.09l4.9-2.68 4.9 2.68c.42.22.92.19 1.29-.09.38-.28.57-.75.5-1.22l-.95-5.69 3.98-4.03c.33-.33.45-.83.31-1.28a1.25 1.25 0 00-.99-.85l-5.48-.82L108.1.7z" fill="#F5CE00"/></g><path d="M128 0h22v20h-22z"/><g clip-path="url(#e)"><path d="M140.1.7c-.2-.43-.63-.7-1.1-.7-.47 0-.89.27-1.1.7l-2.46 5.17-5.48.82c-.46.07-.84.4-.98.85-.14.45-.03.95.3 1.28l3.98 4.03-.94 5.69c-.08.47.11.94.49 1.22s.88.31 1.29.09l4.9-2.68 4.9 2.68c.42.22.92.19 1.29-.09.38-.28.57-.75.5-1.22l-.95-5.69 3.98-4.03c.33-.33.45-.83.31-1.28a1.25 1.25 0 00-.99-.85l-5.48-.82L140.1.7z" fill="#F5CE00"/></g></svg>