<svg width="100" height="100" fill="none" xmlns="http://www.w3.org/2000/svg"><g clip-path="url(#clip0_32_6)" fill="#26F215"><path d="M63.703.086c-4.078.391-7.773 2.066-10.351 4.687l-.586.603-.696-.306c-2.273-1.001-4.343-1.455-6.953-1.525-1.75-.047-3 .07-4.57.414-6.68 1.495-11.438 6.487-11.492 12.05l-.008.79-.758.18c-3.062.736-5.61 2.074-7.617 3.991-2.469 2.356-3.719 5.133-3.719 8.24 0 1.267.133 2.16.485 3.263.812 2.55 2.703 4.953 5.257 6.658 1.414.947 3.602 1.894 5.39 2.332l.704.172v1.19c.008.798.055 1.416.14 1.878 1.102 5.555 6.266 9.773 13.102 10.704.953.133 3.742.133 4.649.008 2.773-.392 5.28-1.268 7.226-2.528.258-.164.5-.305.54-.305.03 0 .265.164.523.36 3.18 2.488 7.46 3.748 11.758 3.474 2.578-.164 4.664-.704 6.828-1.76 2.648-1.291 4.78-3.216 6.156-5.556.203-.344.234-.368.469-.32 3.054.64 5.43.664 8.164.085 5.867-1.236 10.414-5.305 11.43-10.234.742-3.608-.485-7.442-3.235-10.141l-.516-.501.149-.211c.328-.462 1.031-2.043 1.258-2.817.32-1.111.398-1.73.398-2.974-.008-5.172-3.89-9.82-9.82-11.76-1.899-.626-3.547-.869-5.79-.877h-1.726l-.18-.469c-.742-1.972-2.359-4.03-4.335-5.532C72.75.908 68.055-.337 63.703.086zm-30.555 57.7c-.656.148-1.578.54-2.078.876-.976.665-1.82 1.73-2.172 2.762-.234.704-.296 1.964-.117 2.66.406 1.573 1.422 2.794 2.977 3.569 2.445 1.212 5.469.688 7.304-1.268 2.704-2.88 1.282-7.285-2.734-8.498-.672-.211-2.477-.266-3.18-.101zM18.797 71.33c-1.461.352-2.742 1.636-3.133 3.13-.156.595-.148 1.69.008 2.23.555 1.901 2.242 3.193 4.172 3.2 1.992 0 3.758-1.47 4.18-3.482.062-.305.117-.688.117-.86 0-.54-.22-1.385-.516-1.988-.86-1.745-2.914-2.692-4.828-2.23zM7.672 85.563c-.57.157-.805.298-1.195.689-.57.571-.735.978-.735 1.854 0 .642.031.806.203 1.174.266.563.696.986 1.305 1.275.406.188.594.227 1.055.227 1.093.008 1.937-.516 2.414-1.486.226-.462.258-.595.258-1.15 0-.517-.04-.705-.22-1.104-.538-1.174-1.882-1.815-3.085-1.479zm-6.227 10.83c-.39.101-.695.29-1 .626-.937 1.04-.25 2.785 1.164 2.95.766.094 1.477-.306 1.844-1.018.328-.633.149-1.604-.375-2.097-.398-.375-1.14-.587-1.633-.461z"/></g><defs><clipPath id="clip0_32_6"><path fill="#fff" d="M0 0h100v100H0z"/></clipPath></defs></svg>